<svg xmlns="http://www.w3.org/2000/svg" width="26.078" height="26.076"><g data-name="Group 2521"><g data-name="Group 2520" fill="#949494"><path data-name="Path 5754" d="M25.394 20.117l-5.278-3.52a1.541 1.541 0 00-2.063.335l-1.538 1.977a.657.657 0 01-.843.177l-.292-.161a17.675 17.675 0 01-4.606-3.618 17.747 17.747 0 01-3.618-4.606L7 10.408a.658.658 0 01.174-.846L9.15 8.025a1.541 1.541 0 00.336-2.063L5.96.682A1.533 1.533 0 003.894.217L1.687 1.545a3.113 3.113 0 00-1.42 1.843C-.528 6.282.07 11.282 7.433 18.645c5.857 5.856 10.217 7.431 13.214 7.431a7.7 7.7 0 002.043-.267 3.111 3.111 0 001.843-1.42l1.326-2.207a1.533 1.533 0 00-.465-2.065zm-.284 1.621l-1.324 2.207a2.246 2.246 0 01-1.326 1.027c-2.673.734-7.344.126-14.413-6.942S.372 6.291 1.106 3.618A2.249 2.249 0 012.134 2.29L4.341.966a.665.665 0 01.9.2L7.15 4.039l1.6 2.407a.669.669 0 01-.145.9L6.634 8.882a1.521 1.521 0 00-.4 1.952l.157.285a18.436 18.436 0 003.767 4.806 18.455 18.455 0 004.806 3.766l.285.157a1.521 1.521 0 001.952-.4l1.537-1.976a.669.669 0 01.9-.145l5.278 3.52a.664.664 0 01.194.891z"/><path data-name="Path 5755" d="M14.777 4.348a7.4 7.4 0 017.388 7.388.435.435 0 00.869 0 8.266 8.266 0 00-8.257-8.257.435.435 0 000 .869z"/><path data-name="Path 5756" d="M14.777 6.955a4.786 4.786 0 014.78 4.78.435.435 0 10.869 0 5.656 5.656 0 00-5.649-5.649.435.435 0 000 .869z"/><path data-name="Path 5757" d="M14.777 9.562a2.176 2.176 0 012.173 2.173.435.435 0 10.869 0 3.045 3.045 0 00-3.042-3.042.435.435 0 000 .869z"/></g></g></svg>