<svg xmlns="http://www.w3.org/2000/svg" width="23.965" height="23.965"><g data-name="email (1)"><g data-name="Group 2518"><g data-name="Group 2517" fill="#949494"><path data-name="Path 5747" d="M23.96 9.161a.378.378 0 00-.016-.081.4.4 0 00-.023-.069.358.358 0 00-.04-.061.376.376 0 00-.053-.062c-.006-.006-.009-.013-.016-.019l-3.841-2.983V2.795a1.2 1.2 0 00-1.2-1.2h-4.327L12.711.25a1.184 1.184 0 00-1.457 0L9.52 1.595H5.191a1.2 1.2 0 00-1.2 1.2v3.091L.153 8.869c-.007.006-.01.013-.016.019a.375.375 0 00-.053.062.356.356 0 00-.04.061.394.394 0 00-.023.069.379.379 0 00-.016.08v13.606a1.185 1.185 0 00.234.7s0 .008.006.011l.013.011a1.192 1.192 0 00.944.471h21.57a1.193 1.193 0 00.947-.473s.008-.005.011-.009 0-.008.006-.011a1.185 1.185 0 00.234-.7V9.185a.062.062 0 01-.01-.024zM11.742.88a.383.383 0 01.477 0l.921.715h-2.316zM1.299 23.165l10.445-8.113a.383.383 0 01.477 0l10.445 8.113zm21.869-.623l-10.457-8.12a1.185 1.185 0 00-1.457 0L.799 22.543V9.795l6.546 5.083a.4.4 0 00.49-.632L1.183 9.081l2.81-2.186v3.089a.4.4 0 00.8 0V2.795a.4.4 0 01.4-.4h13.579a.4.4 0 01.4.4v7.19a.4.4 0 00.8 0v-3.09l2.81 2.184-6.663 5.175a.4.4 0 10.49.631l6.557-5.09v12.748z"/><path data-name="Path 5748" d="M16.776 9.584v-1.6a4.793 4.793 0 10-4.793 4.793.4.4 0 100-.8 3.994 3.994 0 113.994-3.994v1.6a.8.8 0 11-1.6 0v-1.6a.4.4 0 10-.8 0 1.6 1.6 0 11-1.6-1.6.4.4 0 100-.8 2.4 2.4 0 101.615 4.163 1.593 1.593 0 003.178-.168z"/></g></g></g></svg>