<svg xmlns="http://www.w3.org/2000/svg" width="22.579" height="22.578"><g data-name="Group 2914" fill="#fff"><path data-name="Path 6153" d="M.786 6.824a.786.786 0 00.786-.786V2.685l5.065 5.063a.786.786 0 101.112-1.112L2.684 1.573h3.354a.788.788 0 000-1.575H.786A.786.786 0 000 .786v5.252a.786.786 0 00.786.786z"/><path data-name="Path 6154" d="M21.789 15.754a.786.786 0 00-.786.786v3.35l-5.22-5.221a.786.786 0 00-1.112 1.112l5.22 5.22h-3.353a.787.787 0 100 1.573h5.251a.786.786 0 00.786-.786V16.54a.787.787 0 00-.786-.786z"/><path data-name="Path 6155" d="M6.795 14.672l-5.22 5.22V16.54a.787.787 0 10-1.573 0v5.25a.786.786 0 00.786.786h5.249a.787.787 0 100-1.573H2.685l5.22-5.221a.786.786 0 00-1.11-1.11z"/><path data-name="Path 6156" d="M21.792-.002h-5.251a.787.787 0 100 1.573h3.353L14.83 6.635a.786.786 0 001.112 1.112l5.064-5.064v3.355a.787.787 0 001.573 0V.786a.786.786 0 00-.787-.788z"/></g></svg>