<svg xmlns="http://www.w3.org/2000/svg" width="51.292" height="57.522"><path data-name="Path 6246" d="M44.585 6.231h-1.733V4.34a4.216 4.216 0 10-8.428 0v1.889H30.1V4.34a4.216 4.216 0 10-8.428 0v1.889h-4.324V4.34a4.216 4.216 0 10-8.428 0v1.889H6.707A6.716 6.716 0 000 12.936v37.878a6.715 6.715 0 006.707 6.707h37.878a6.714 6.714 0 006.707-6.707V12.937a6.715 6.715 0 00-6.707-6.706zM36.792 4.34a1.851 1.851 0 113.693 0v7.725a1.851 1.851 0 11-3.693 0zm-12.752 0a1.851 1.851 0 113.693 0v7.725a1.851 1.851 0 11-3.693 0zm-12.754 0a1.851 1.851 0 113.693 0v7.725a1.851 1.851 0 11-3.693 0zm36.061 46.477a2.765 2.765 0 01-2.762 2.762H6.707a2.765 2.765 0 01-2.761-2.762V16.1h43.4zM13.781 40.368h28.1l.507.237.3-.657v-.009a.791.791 0 00.065-.3v-4.921a.723.723 0 00-.215-.51l-8.939-8.881-5.426-5.391a.726.726 0 00-1.018 0L12.792 34.208a.71.71 0 00-.213.51v4.765l-.237.511 1.307.608zm13.545-5.832h3.668V38.2h-3.668zm-5.109 0h3.665V38.2h-3.668zm15.409 12.901l1.307.608-.3.653a.718.718 0 01-.65.42h-.724v-1.443h.265zm-11.864.235h1.434v1.443h-1.438zm-2.869 0h1.433v1.443h-1.437zm-5.748 0h1.438v1.443h-1.442zm2.877 0h1.435v1.443h-1.439zm-8.617 0h1.436v1.443h-1.44zm2.872 0h1.435v1.443h-1.438zm20.1 0h1.435v1.443h-1.435zm-2.872 0h1.436v1.443h-1.436zm-2.872 0h1.436v1.443h-1.437zm-20 1.111a.719.719 0 01-.044-.691l.3-.653.507.234h.559v.265l.24.107-.24.508v.559h-.718a.707.707 0 01-.601-.329zm3.65-5.2l-1.307-.608.691-1.488 1.307.608zm-1.389 2.978l-1.308-.609.693-1.487 1.308.608zm29.494-5.074l1.308.611-.691 1.488-1.307-.611zm-1.384 2.978l1.307.608-.685 1.485-1.307-.609zm-13.126-3.376l-1.441 3.668h-3.666l1.443-3.668zm1.444 0h3.668l-1.443 3.668h-3.67z" fill="#818181"/></svg>