<svg xmlns="http://www.w3.org/2000/svg" width="52.293" height="54.368"><g data-name="Group 2875" fill="#818181"><path data-name="Path 6247" d="M47.728 2.075h-1.866a1.643 1.643 0 00.1-.48 1.6 1.6 0 00-3.191 0 1.5 1.5 0 00.1.48h-6.115a1.591 1.591 0 00.1-.48 1.6 1.6 0 00-3.194 0 1.543 1.543 0 00.1.48h-6.115a1.591 1.591 0 00.1-.48 1.6 1.6 0 00-3.192 0 1.591 1.591 0 00.1.48h-6.117a1.591 1.591 0 00.1-.48 1.6 1.6 0 00-3.192 0 1.542 1.542 0 00.1.48H9.429a1.542 1.542 0 00.1-.48 1.6 1.6 0 10-3.191 0 1.591 1.591 0 00.1.48H4.565A4.569 4.569 0 000 6.64V49.8a4.568 4.568 0 004.565 4.568h38.01l9.72-9.72V6.64a4.568 4.568 0 00-4.567-4.565zm2.075 41.541l-.516.516h-3.912a3.329 3.329 0 00-3.32 3.32v3.91l-.515.516H4.565A2.078 2.078 0 012.49 49.8V14.941h47.313z"/><path data-name="Path 6248" d="M27.437 41.543a86.994 86.994 0 00-2.052-15.626h-1.32a112.649 112.649 0 01.422 18.117 43.8 43.8 0 00-5.509-10.729l-.8.561a45.107 45.107 0 014.645 15.867h5.979a58.437 58.437 0 014.681-18.4l-.8-.7a41.87 41.87 0 00-5.246 10.91z"/><path data-name="Path 6249" d="M22.522 25.747l1.979-1.444 2.309.808-.762-2.324 1.486-1.947-2.449.007-1.394-2.014-.75 2.331-2.347.7 1.985 1.434z"/><path data-name="Path 6250" d="M34.394 29.545l1.182 2.145.984-2.241 2.407-.462-1.829-1.629.305-2.43-2.118 1.235-2.214-1.041.521 2.39-1.675 1.786z"/><path data-name="Path 6251" d="M15.666 31.763l.729 2.339 1.414-2 2.449.03-1.466-1.962.787-2.319-2.319.787-1.964-1.466.032 2.449-2 1.413z"/></g></svg>