<svg xmlns="http://www.w3.org/2000/svg" width="55.138" height="54.184"><path data-name="Path 6252" d="M55.092 11.073c.25-3.31-.527-5.8-2.315-7.4a7.878 7.878 0 00-5.259-1.806c.063-.646.114-1.282.131-1.867H7.482c.018.583.068 1.221.135 1.867a7.892 7.892 0 00-5.26 1.808C.573 5.272-.201 7.763.046 11.073c.7 9.23 8.633 16.953 20.764 20.337a14.1 14.1 0 002.789 1.979 4.226 4.226 0 00-.158 1.079 4.1 4.1 0 001.491 3.151v11.565h-2.15a5.782 5.782 0 00-5.113 3.086l-1.009 1.914h21.815l-1.011-1.916a5.779 5.779 0 00-5.113-3.084h-2.152V37.619a4.091 4.091 0 001.489-3.151 4.15 4.15 0 00-.158-1.079 14.29 14.29 0 002.794-1.979c12.133-3.383 20.069-11.107 20.768-20.337zm-4.06-5.426c1.133 1.025 1.617 2.783 1.426 5.226-.448 5.95-4.465 11.22-10.949 14.816a1.1 1.1 0 01-1.482-1.52A62.079 62.079 0 0047.164 4.51a5.507 5.507 0 013.868 1.137zM2.675 10.875c-.186-2.443.3-4.2 1.429-5.226a5.485 5.485 0 013.865-1.135 62.156 62.156 0 007.137 19.657 1.1 1.1 0 01-1.482 1.52c-6.48-3.598-10.499-8.864-10.949-14.816z" fill="#818181"/></svg>