<svg data-name="Group 2873" xmlns="http://www.w3.org/2000/svg" width="66.9" height="73.985"><path data-name="Path 6244" d="M21.84 20.585c-.363-.606 2.868-12.248 2.868-13.173s-2.221-4-2.459-4.455-1.272-.782-1.78-1.157S19.33.618 18.869.19s-3.211 0-4 0 .31 1.233 1.1 1.464c-.248.486-1.48 1.1-1.1 1.508s2.972-.918 3.689-.615 1.425 2.232 1.425 2.232a2.4 2.4 0 00-.093 1.46c.238.611 1.2 1.4 1.025 2.151a33.364 33.364 0 01-2.255 4.3c-.476.826-.615 2.834-1.025 3.278s-1.332 0-1.332 0 .546-3.449.31-4.1-.241-4.508-4-3.9-3.245 4.716-2.972 5.433a8.748 8.748 0 00.685 2.359 2.063 2.063 0 001.367.819s.273.856 0 1.129-3.486-1.528-3.486-1.528S4.756 13.416 4.721 13c-.014-.178.317-.592.342-1.094.03-.645-.227-1.392-.035-1.471a6.439 6.439 0 001.126-.921c.331-.271-.136-1.092.206-1.432s2.318-2.366 2.764-2.769a15.593 15.593 0 011.794-1.223c.488-.31 2.1-1.64 1.9-2.153S11.191 3.3 10.869 3.1s-.514-2.049-1.538-1.677c-.72.261-1.962 2.452-2.362 3.077s-.273.618-.685.921c.333-.25-1.76 1.51-3.007 2.561a15.7 15.7 0 00-1.536 1.95 7.817 7.817 0 00-1.742 2.766c-.1 1.092 3.722 6.118 4.506 6.558a15.076 15.076 0 012.564 1.224 13.758 13.758 0 012.255 2.306 28.5 28.5 0 003.382 4.666 7.132 7.132 0 003.382 1.538c.657.167 1.025 2.017.819 3.176s-1.434 3.347-1.844 5.639.738 3.867.925 5.531c.273 2.426-2.57 17.966-3.028 20.5s-.359 7.21-.872 7.994a2.908 2.908 0 000 2.153h8.2c1.64 0 2.836-.544 2.766-1.126s-3.074-.409-3.178-1.64 4-27.84 4.511-29.312a35.29 35.29 0 001.536-9.121 36.751 36.751 0 00-1.948-8.609 29.662 29.662 0 00-2.135-3.59z" fill="#818181"/><path data-name="Path 6245" d="M66.83 38.215a18.225 18.225 0 00-1.742-2.766c-1.739-1.892-4.15-3.611-4.714-4.2-.819-.851-1.638-1.742-2.871-1.485a4.6 4.6 0 00-1.64.564c-1.02.412-7.649.134-8.609-.414s-4.009-2.517-4.714-2.97-1.7-2.153-2.662-2.561-2.017-.171-2.359-.615-.888-1.95-.546-2.255 1.536 1.42 2.459.84.516-1.943.442-2.276 1.161-2.325.719-3.791-2.6-2.084-4-2.258-2.355 1.434-2.355 1.434a4.043 4.043 0 01-1.642.514c-.342.028-.053.416.1.719s-.719 1.536-.539 2.04 1.665.761 1.615 1.342a1.8 1.8 0 01-1.689 1.742c-1.3.1-1.707-2.015-2.667-2.662-.479-.324-.7-1.443-1.157-2.359s-1.166-1.631-1.3-1.948c-.273-.634.921-2.97.921-2.97s5.366 2.115 8.714-2.292c3.655-4.811-.511-9.4-.511-9.4l-4.3 3.382a.58.58 0 00-.819 0c-.479.377-1.728 1.337-2.255 1.744s-3.965 8.336-4 9.118 3.485 9.331 3.485 9.331-.592 1.427-1.228 2.972.891 5.7.514 8.815.631 9.937.995 12.6a108.038 108.038 0 01-.789 20.089 7.1 7.1 0 005.228.821l.615 1.228c.293.587-2.8 2.119-1.744 2.255a44.489 44.489 0 004.511 0c.34-.014 1.5-1.4 1.5-1.4l.6 1.013.518-.039.48-1.909s1.434.4 2.119-.222a14.824 14.824 0 01-1.332-2.121s5.26-1.152 4.922-1.876-2.052-6.662-2.052-6.662 20.191-13.971 20.29-15.169.1-3.486.1-3.486 4.037-1.536 3.389-2.457zm-32.316-3.967c.338-.511-.206-1.945 0-2.63a17.346 17.346 0 011.8-2.8 2.044 2.044 0 011.985-.886c.819.1 2.785 2.35 3.854 2.676s5.639 1.73 5.639 1.73a73.388 73.388 0 00-13.278 1.91z" fill="#818181"/></svg>