<svg xmlns="http://www.w3.org/2000/svg" width="46.08" height="46.079"><g data-name="Group 2914" fill="#fff0e1"><g data-name="Group 2867"><path data-name="Path 6240" d="M2.487 14.938a2.486 2.486 0 002.487-2.483V4.976H12.4a2.455 2.455 0 100-4.909H2.473A2.451 2.451 0 000 2.524v9.931a2.486 2.486 0 002.487 2.483z"/><path data-name="Path 6241" d="M43.591 31.126a2.486 2.486 0 00-2.491 2.483v7.429h-7.418a2.487 2.487 0 000 4.973h9.932a2.46 2.46 0 002.466-2.472V33.61a2.491 2.491 0 00-2.489-2.484z"/><path data-name="Path 6242" d="M12.465 41.1H5.04v-7.431a2.487 2.487 0 00-4.974 0V43.6a2.466 2.466 0 002.468 2.477h9.931a2.488 2.488 0 000-4.975z"/><path data-name="Path 6243" d="M33.62 4.976h7.418V12.4a2.487 2.487 0 004.973 0V2.462A2.445 2.445 0 0043.551 0h-9.932a2.488 2.488 0 000 4.976z"/></g><text data-name="+" transform="translate(14.001 32)" font-size="31" font-family="Rubik-Regular, Rubik" letter-spacing=".025em"><tspan x="0" y="0">+</tspan></text></g></svg>