<svg xmlns="http://www.w3.org/2000/svg" width="23.662" height="31.202"><g data-name="Group 2523"><g data-name="Group 2522"><path data-name="Path 5758" d="M11.831 31.2a1.443 1.443 0 01-1.188-.614L2.92 19.706a16.854 16.854 0 01-1.987-3.279 11.708 11.708 0 01-.7-2.252 11.92 11.92 0 01-.238-2.35 11.831 11.831 0 0123.662 0 11.868 11.868 0 01-.933 4.6 16.8 16.8 0 01-1.982 3.271c-.081.112-.154.213-.344.481l-7.385 10.406a1.442 1.442 0 01-1.182.617zm0-30.175a10.8 10.8 0 00-10.8 10.8 10.882 10.882 0 00.218 2.146 10.645 10.645 0 00.634 2.053A15.806 15.806 0 003.755 19.1l.344.482 7.385 10.405a.423.423 0 00.693 0l7.385-10.406c.193-.272.268-.375.342-.478a15.807 15.807 0 001.874-3.078 10.845 10.845 0 00.851-4.2 10.805 10.805 0 00-10.8-10.8zm0 17.916a7.116 7.116 0 117.115-7.116 7.125 7.125 0 01-7.115 7.118zm0-13.2a6.085 6.085 0 106.084 6.085 6.093 6.093 0 00-6.084-6.084z" fill="#949494"/></g></g></svg>