<svg xmlns="http://www.w3.org/2000/svg" width="56" height="56"><g data-name="Group 2914" transform="translate(-167 -66)" fill="#fff"><circle data-name="Ellipse 71" cx="4" cy="4" r="4" transform="translate(167 66)"/><circle data-name="Ellipse 71" cx="4" cy="4" r="4" transform="translate(183 66)"/><circle data-name="Ellipse 71" cx="4" cy="4" r="4" transform="translate(199 66)"/><circle data-name="Ellipse 71" cx="4" cy="4" r="4" transform="translate(215 66)"/><circle data-name="Ellipse 71" cx="4" cy="4" r="4" transform="translate(167 82)"/><circle data-name="Ellipse 71" cx="4" cy="4" r="4" transform="translate(183 82)"/><circle data-name="Ellipse 71" cx="4" cy="4" r="4" transform="translate(199 82)"/><circle data-name="Ellipse 71" cx="4" cy="4" r="4" transform="translate(215 82)"/><circle data-name="Ellipse 71" cx="4" cy="4" r="4" transform="translate(167 98)"/><circle data-name="Ellipse 71" cx="4" cy="4" r="4" transform="translate(183 98)"/><circle data-name="Ellipse 71" cx="4" cy="4" r="4" transform="translate(199 98)"/><circle data-name="Ellipse 71" cx="4" cy="4" r="4" transform="translate(215 98)"/><circle data-name="Ellipse 71" cx="4" cy="4" r="4" transform="translate(167 114)"/><circle data-name="Ellipse 71" cx="4" cy="4" r="4" transform="translate(183 114)"/><circle data-name="Ellipse 71" cx="4" cy="4" r="4" transform="translate(199 114)"/><circle data-name="Ellipse 71" cx="4" cy="4" r="4" transform="translate(215 114)"/></g></svg>