<svg xmlns="http://www.w3.org/2000/svg" width="58.649" height="36.656"><g data-name="Group 2914" fill="#0f0f0f"><path data-name="Path 1085" d="M27.492 0h-9.164a18.328 18.328 0 000 36.656h9.164a1.832 1.832 0 001.833-1.833V1.833A1.832 1.832 0 0027.492 0zm-1.833 32.99h-7.331a14.662 14.662 0 010-29.324h7.331z"/><path data-name="Path 1086" d="M34.522 7.306l21.993 3.666a1.738 1.738 0 00.3.025 1.833 1.833 0 00.3-3.641L35.122 3.69a1.833 1.833 0 10-.6 3.615z"/><path data-name="Path 1087" d="M57.117 20.186L35.124 16.52a1.833 1.833 0 10-.6 3.615l21.993 3.666a1.738 1.738 0 00.3.025 1.833 1.833 0 00.3-3.641z"/><path data-name="Path 1088" d="M57.117 33.016l-21.993-3.665a1.833 1.833 0 10-.6 3.615l21.993 3.665a1.738 1.738 0 00.3.025 1.833 1.833 0 00.3-3.641z"/></g></svg>