<svg xmlns="http://www.w3.org/2000/svg" width="41.596" height="41.6"><path d="M41.578 40.73l-1.975-7.894a.7.7 0 00-.181-.326l-11.8-11.8 1.691-1.691a2.125 2.125 0 011.715-.642 9.08 9.08 0 009.807-11.364.7.7 0 00-1.168-.313l-4.866 4.866-4.113-.826-.826-4.113 4.866-4.865a.7.7 0 00-.313-1.168 9.08 9.08 0 00-11.365 9.807 2.127 2.127 0 01-.645 1.716l-1.691 1.691L8.341 1.431a4.886 4.886 0 10-6.91 6.91l12.377 12.373-1.69 1.69a2.114 2.114 0 01-1.716.644A9.08 9.08 0 00.595 34.415a.7.7 0 001.168.313l4.865-4.866 4.113.826.831 4.112-4.867 4.866a.7.7 0 00.313 1.168 9.08 9.08 0 0011.36-9.807 2.127 2.127 0 01.645-1.716l1.691-1.691 11.8 11.8a.7.7 0 00.324.184l7.89 1.973a.7.7 0 00.847-.847zm-5.194-1.68l-2.683-.673v-2.55l1.633.327a.7.7 0 00.822-.822l-.327-1.633h2.549l.671 2.682a4.834 4.834 0 00-2.666 2.668zm-2.049-5.7l.243 1.227-1.233-.247L9.826 10.812l.983-.987zM23.393 13.106a3.53 3.53 0 001.047-2.862 7.685 7.685 0 018.36-8.528l-4.188 4.188a.7.7 0 00-.191.632l.992 4.934a.7.7 0 00.547.547l4.934.99a.7.7 0 00.632-.191l4.188-4.188a7.685 7.685 0 01-8.525 8.363 3.532 3.532 0 00-2.862 1.047l-1.694 1.689-1.98-1.98c.014-.012.031-.016.045-.029l2.792-2.792a.7.7 0 10-.987-.987l-2.792 2.792c-.013.013-.017.031-.029.045l-1.98-1.98zm-10.61-5.258l24.454 24.457h-1.97l-23.47-23.47zM2.418 7.353a3.49 3.49 0 114.936-4.935l1.48 1.48-4.935 4.936zm2.467 2.468l4.936-4.936 1.974 1.975-4.935 4.935zm13.151 18.5a3.53 3.53 0 00-1.047 2.862 7.685 7.685 0 01-8.36 8.528l4.188-4.188a.7.7 0 00.191-.632l-.99-4.934a.7.7 0 00-.547-.547l-4.935-.99a.7.7 0 00-.628.191L1.72 32.798a7.685 7.685 0 018.524-8.362 3.523 3.523 0 002.862-1.047l1.691-1.691 1.981 1.979c-.013.012-.031.016-.044.029l-2.792 2.792a.7.7 0 10.987.987l2.792-2.792c.013-.013.017-.031.029-.044l1.98 1.979zM7.847 12.785l.989-.989 23.47 23.47v1.97zm29.915 26.61a3.336 3.336 0 011.633-1.633l.545 2.178z" fill="#fff"/></svg>