<svg xmlns="http://www.w3.org/2000/svg" width="44.522" height="35.31"><g data-name="Group 2915" fill="#0f0f0f"><path data-name="Path 1089" d="M28.047 17.007l-8.444-5.373a.767.767 0 00-1.18.648v10.746a.768.768 0 001.18.648l8.444-5.373a.768.768 0 000-1.3zm-8.088 4.623v-7.951l6.246 3.975z"/><path data-name="Path 1090" d="M43.754 0H.768A.767.767 0 000 .768v33.775a.767.767 0 00.768.768h42.986a.767.767 0 00.768-.768V.768A.767.767 0 0043.754 0zM7.676 16.888H1.535V9.979h6.141zm-6.141 1.535h6.141v6.909H1.535zM9.211 26.1V1.535h26.1v32.24h-26.1zm33.775-9.211h-6.14v-6.91h6.141zm-6.141 1.535h6.141v6.909h-6.14zm6.142-16.889v6.909h-6.141V1.535zm-41.451 0h6.14v6.909H1.535zm0 32.24v-6.908h6.14v6.909zm41.451 0h-6.141v-6.908h6.141z"/></g></svg>