<svg xmlns="http://www.w3.org/2000/svg" width="37.249" height="46.75"><path d="M3.478 42.579L.237 45.503a.681.681 0 000 1.033.873.873 0 001.145 0l3-2.708h6.145v2.192a.814.814 0 001.619 0v-2.192h6.137l3 2.708a.873.873 0 001.145 0 .681.681 0 000-1.033L19.2 42.59l-.016-.015-7.038-6.352V20.396l7.746-4.034a5.451 5.451 0 01.2 4.061.669.669 0 00.076.578.808.808 0 00.52.345 6.505 6.505 0 014.251 2.786 5.381 5.381 0 01.553 4.725v.013a.643.643 0 00-.019.176.7.7 0 00-.009.107.65.65 0 00.036.107.694.694 0 00.061.164v.013a.766.766 0 00.166.178c.016.012.032.021.049.033a.828.828 0 00.219.107c.011 0 .019.012.03.015h.016a.946.946 0 00.218.029h.006a.9.9 0 00.232-.034.671.671 0 00.068-.026.772.772 0 00.1-.039l2.075-1.081a15.556 15.556 0 007.922-9.317 13.888 13.888 0 00-1.321-10.986l.027-.015a.692.692 0 00.3-1 .859.859 0 00-1.106-.267l-.029.014c-4.871-6.839-14.906-9.108-22.789-5l-2.06 1.074a.8.8 0 00-.183.145c-.017.017-.04.029-.056.047a.7.7 0 00-.051.1.743.743 0 00-.083.164v.01a.6.6 0 000 .1.611.611 0 00-.006.172.679.679 0 00.062.164.679.679 0 00.036.095l.009.011.028.033a.761.761 0 00.161.156l.053.037a.88.88 0 00.257.107h.007a6.514 6.514 0 014.23 2.787 5.383 5.383 0 01.551 4.72.667.667 0 00.073.579.808.808 0 00.518.347 6.713 6.713 0 013.812 2.2l-2.063 1.075-1.151-1.8c-.011-.016-.028-.026-.041-.042s-.01-.04-.021-.058a.86.86 0 00-1.106-.267L6.29 18.39a.692.692 0 00-.3 1l1.619 2.531a.831.831 0 00.7.365.871.871 0 00.4-.1l1.809-.942v14.973zm5.134-22.028L7.8 19.29l4.909-2.556.811 1.256zm7.829-8.874a6.672 6.672 0 00-.9-5.155 7.776 7.776 0 00-3.528-2.932l.535-.279C19.9-.51 29.325 1.767 33.567 8.39A12.618 12.618 0 0135.1 18.927a14.074 14.074 0 01-7.168 8.429l-.549.286a6.675 6.675 0 00-1.046-4.242 7.944 7.944 0 00-4.5-3.28 6.718 6.718 0 00-.9-5.147l-.007-.013a7.983 7.983 0 00-4.489-3.283zm-1.518 5.587l-.81-1.265.7-.365.81 1.265zM6 42.366l4.526-4.085v4.085zm10.664 0h-4.516V38.29z" fill="#0f0f0f"/></svg>